Coordinates
version=1
nRows=9
nColumns=36
inDegrees=yes

Units are S.I. units (second, meters, Newtons, ...)
If the header above contains a line with 'inDegrees', this indicates whether rotational values are in degrees (yes) or radians (no).

endheader
time	pelvis_tilt	pelvis_list	pelvis_rotation	pelvis_tx	pelvis_ty	pelvis_tz	hip_flexion_r	hip_adduction_r	hip_rotation_r	knee_angle_r	knee_angle_r_beta	ankle_angle_r	subtalar_angle_r	mtp_angle_r	hip_flexion_l	hip_adduction_l	hip_rotation_l	knee_angle_l	knee_angle_l_beta	ankle_angle_l	subtalar_angle_l	mtp_angle_l	lumbar_extension	lumbar_bending	lumbar_rotation	arm_flex_r	arm_add_r	arm_rot_r	elbow_flex_r	pro_sup_r	arm_flex_l	arm_add_l	arm_rot_l	elbow_flex_l	pro_sup_l
      3.75000000	     -4.62569870	     -0.55317066	     -3.70253768	      0.69252514	      0.85559344	      0.02852512	     40.95037192	      4.19868092	     10.70016148	     59.87981748	      1.04509997	     19.09899659	    -16.93233437	     -7.49999987	     39.08175939	     -1.89100062	      8.99732688	     60.20836431	      1.05083419	     16.52528944	    -30.49039043	     -7.49999987	    -16.18550388	      3.13561466	     -3.56898584	     13.21840191	     -7.18655974	     23.53629779	    104.87457545	     89.43985969	     12.43103770	    -11.00282135	     24.15060004	    108.28307664	     85.04716089
      3.76666670	     -3.46049789	     -0.72162499	     -3.32109036	      0.69469873	      0.87587589	      0.02995298	     36.71321772	      3.97292674	     10.57401161	     54.95117200	      0.95907888	     16.81094342	    -17.91105024	     -7.49999987	     35.85450817	     -2.07166223	      9.06733631	     56.20642671	      0.98098721	     13.55871131	    -30.84952244	     -7.49999987	    -17.01511832	      3.00025426	     -3.00078802	     14.64131387	     -6.39188693	     23.77282599	    107.22304035	     93.51907960	     14.35106282	    -10.25004726	     24.79839528	    108.88830366	     85.74407198
      3.78333330	     -2.30978723	     -0.82345325	     -2.91833631	      0.69436689	      0.89575941	      0.02977286	     32.68641196	      3.57589664	     10.41384750	     49.80549694	      0.86926991	     13.95984789	    -18.42842042	     -7.49999987	     32.16083011	     -2.25839938	      8.93538962	     51.37881909	      0.89672956	     10.99684521	    -30.51774893	     -7.49999987	    -17.70784488	      2.87624931	     -2.94634640	     16.14557460	     -6.18961908	     24.18490529	    108.84881969	     93.24958275	     15.68153046	    -10.44438344	     24.72635225	    110.08920732	     85.71278127
      3.80000000	     -1.25663395	     -0.99938623	     -2.64320206	      0.69924769	      0.91589339	      0.02947144	     28.52494418	      3.28111644	     10.29758159	     44.47317840	      0.77620339	     10.96682738	    -18.25932435	     -7.49999987	     28.31733777	     -2.63833220	      8.62463362	     46.07574391	      0.80417344	      7.88149785	    -30.44874073	     -7.49999987	    -18.07947019	      2.95045239	     -2.59934615	     17.32054601	     -6.73710156	     24.67958868	    110.02015766	     92.87179752	     15.67167926	    -10.11546113	     24.40718040	    110.98438317	     85.43579940
      3.81666670	     -0.39075618	     -1.14808564	     -2.47158948	      0.70475752	      0.93413062	      0.02980761	     24.40175069	      2.88787883	     10.22433698	     39.16659695	      0.68358607	      7.54392408	    -18.18062154	     -7.49999987	     24.22498653	     -3.01727681	      8.18505262	     40.47462972	      0.70641555	      5.18289424	    -29.96557767	     -7.49999987	    -17.81883390	      2.92472238	     -2.50315392	     18.02779644	     -7.55760377	     25.48040849	    111.30922700	     92.05266283	     14.96798094	    -10.08970522	     23.70895621	    112.29761372	     84.67605404
      3.83333330	      0.16317694	     -1.27128673	     -2.23346356	      0.71121899	      0.95280587	      0.03017246	     20.51265188	      2.56508735	     10.19654193	     33.68628696	      0.58793662	      3.91070578	    -17.31813451	     -7.49999987	     20.24813264	     -3.48229965	      7.52082403	     34.45156294	      0.60129321	      2.54894610	    -28.84478054	     -7.49999987	    -17.07867440	      3.03711096	     -3.17980278	     18.69353793	     -8.26153704	     26.15973703	    112.03335185	     95.19946024	     13.21987376	    -10.44127676	     21.79605689	    114.14826935	     85.51728731
      3.85000000	      0.44672515	     -1.44561992	     -2.08828675	      0.71493224	      0.96849684	      0.03014890	     17.11365018	      2.26736318	      9.43226194	     28.30086503	      0.49394328	      0.40307037	    -16.26910837	     -7.49999987	     16.70724386	     -3.98240137	      6.63400924	     28.63889742	      0.49984305	     -0.02255997	    -27.44360856	     -7.49999987	    -16.04779320	      3.11553107	     -3.51838953	     18.94413832	     -9.21376982	     26.25492715	    113.16946319	     95.07546610	     11.55444026	    -10.71310756	     19.75054567	    116.02838639	     85.22855557
      3.86666670	      0.36430242	     -1.58840569	     -1.87559147	      0.71728054	      0.97651409	      0.02922910	     14.59559849	      2.01219208	      8.61750743	     23.79406858	      0.41528484	     -1.95508825	    -14.67326542	     -7.49999987	     13.96079760	     -4.35480768	      5.52221326	     23.64309350	      0.41264983	     -1.62899775	    -25.94782988	     -7.49999987	    -14.40981847	      3.20853357	     -3.45972934	     18.87888506	    -10.39494733	     25.77052458	    114.66456775	     95.16348048	     10.70804576	    -11.03164886	     18.65302123	    117.45762214	     85.17140191
      3.88333330	      0.03699779	     -1.58481302	     -1.75770362	      0.72065774	      0.98353654	      0.02941747	     12.74237956	      1.70051103	      7.85799458	     19.99302483	      0.34894411	     -4.13337648	    -13.06627416	     -7.49999987	     11.86386779	     -4.53485116	      4.01430221	     19.44863188	      0.33944266	     -3.67787158	    -24.51781026	     -7.49999987	    -12.50192350	      3.10695224	     -3.60359892	     18.92987347	    -11.47126550	     25.52111003	    116.41144305	     95.24195894	      9.79456145	    -11.73780859	     17.27495242	    119.16427367	     85.01848028
